<svg xmlns="http://www.w3.org/2000/svg" width="18.225" height="18.5"><path data-name="Path 1" d="M16.125 16.325A11.017 11.017 0 0113.05 17.6a14.839 14.839 0 01-3.55.4 9.123 9.123 0 01-3.6-.7 8.792 8.792 0 01-2.85-1.913 8.74 8.74 0 01-1.875-2.85A9.191 9.191 0 01.5 9a9.375 9.375 0 01.588-3.35 8.018 8.018 0 011.675-2.7 7.738 7.738 0 012.6-1.8A8.5 8.5 0 018.75.5a10.291 10.291 0 013.85.612 5.8 5.8 0 012.2 1.412 2.265 2.265 0 01.375.75 5.979 5.979 0 01.188.887 8.706 8.706 0 01.075.938c.008.317.012.9.012.9s1.208 2.851 2.275 2.851v.625a1.318 1.318 0 00-1.225.625 3.413 3.413 0 00-.375 1.75z" fill="none" stroke="#000" stroke-linejoin="round" opacity=".3"/></svg>